i<svg width="100%" viewBox="0 0 680 600" xmlns="http://www.w3.org/2000/svg" style="font-family: sans-serif; background: white;">

  <defs>
    <marker id="arrow" viewBox="0 0 10 10" refX="8" refY="5" markerWidth="6" markerHeight="6" orient="auto-start-reverse">
      <path d="M2 1L8 5L2 9" fill="none" stroke="context-stroke" stroke-width="1.5" stroke-linecap="round" stroke-linejoin="round"/>
    </marker>
  </defs>

  <!-- Column headers -->
  <text x="175" y="30" text-anchor="middle" font-size="12" fill="#888">Ingress (RX)</text>
  <text x="505" y="30" text-anchor="middle" font-size="12" fill="#888">Egress (TX)</text>
  <line x1="340" y1="20" x2="340" y2="580" stroke="#ccc" stroke-width="0.5" stroke-dasharray="4 4"/>

  <!-- Layer bands -->
  <rect x="40" y="42" width="600" height="56" rx="6" fill="#f5f5f5" stroke="#ddd" stroke-width="0.5"/>
  <text x="648" y="72" text-anchor="end" font-size="12" fill="#aaa">Hardware</text>

  <rect x="40" y="114" width="600" height="56" rx="6" fill="#f5f5f5" stroke="#ddd" stroke-width="0.5"/>
  <text x="648" y="144" text-anchor="end" font-size="12" fill="#aaa">Driver</text>

  <rect x="40" y="186" width="600" height="56" rx="6" fill="#f5f5f5" stroke="#ddd" stroke-width="0.5"/>
  <text x="648" y="216" text-anchor="end" font-size="12" fill="#aaa">L2 / Netfilter</text>

  <rect x="40" y="258" width="600" height="56" rx="6" fill="#f5f5f5" stroke="#ddd" stroke-width="0.5"/>
  <text x="648" y="288" text-anchor="end" font-size="12" fill="#aaa">L3 / IP</text>

  <rect x="40" y="330" width="600" height="56" rx="6" fill="#f5f5f5" stroke="#ddd" stroke-width="0.5"/>
  <text x="648" y="360" text-anchor="end" font-size="12" fill="#aaa">L4 / Transport</text>

  <rect x="40" y="402" width="600" height="56" rx="6" fill="#f5f5f5" stroke="#ddd" stroke-width="0.5"/>
  <text x="648" y="432" text-anchor="end" font-size="12" fill="#aaa">Socket</text>

  <rect x="40" y="474" width="600" height="56" rx="6" fill="#f5f5f5" stroke="#ddd" stroke-width="0.5"/>
  <text x="648" y="504" text-anchor="end" font-size="12" fill="#aaa">User space</text>

  <!-- INGRESS nodes (teal) -->
  <rect x="60" y="52" width="220" height="36" rx="6" fill="#E1F5EE" stroke="#0F6E56" stroke-width="0.5"/>
  <text x="170" y="70" text-anchor="middle" font-size="13" font-weight="500" fill="#085041" dominant-baseline="central">NIC + DMA ring buffer</text>

  <rect x="60" y="124" width="220" height="36" rx="6" fill="#E1F5EE" stroke="#0F6E56" stroke-width="0.5"/>
  <text x="170" y="142" text-anchor="middle" font-size="13" font-weight="500" fill="#085041" dominant-baseline="central">Driver: NAPI poll → sk_buff</text>

  <rect x="60" y="196" width="220" height="36" rx="6" fill="#E1F5EE" stroke="#0F6E56" stroke-width="0.5"/>
  <text x="170" y="214" text-anchor="middle" font-size="13" font-weight="500" fill="#085041" dominant-baseline="central">tc ingress + PREROUTING</text>

  <rect x="60" y="268" width="220" height="36" rx="6" fill="#E1F5EE" stroke="#0F6E56" stroke-width="0.5"/>
  <text x="170" y="286" text-anchor="middle" font-size="13" font-weight="500" fill="#085041" dominant-baseline="central">IP routing decision</text>

  <rect x="60" y="340" width="220" height="36" rx="6" fill="#E1F5EE" stroke="#0F6E56" stroke-width="0.5"/>
  <text x="170" y="358" text-anchor="middle" font-size="13" font-weight="500" fill="#085041" dominant-baseline="central">TCP/UDP demux + recv queue</text>

  <rect x="60" y="412" width="220" height="36" rx="6" fill="#E1F5EE" stroke="#0F6E56" stroke-width="0.5"/>
  <text x="170" y="430" text-anchor="middle" font-size="13" font-weight="500" fill="#085041" dominant-baseline="central">Socket recv buffer</text>

  <rect x="60" y="484" width="220" height="36" rx="6" fill="#E6F1FB" stroke="#185FA5" stroke-width="0.5"/>
  <text x="170" y="502" text-anchor="middle" font-size="13" font-weight="500" fill="#0C447C" dominant-baseline="central">App: read() / recv()</text>

  <!-- INGRESS arrows -->
  <line x1="170" y1="88" x2="170" y2="122" stroke="#1D9E75" stroke-width="1.5" marker-end="url(#arrow)"/>
  <line x1="170" y1="160" x2="170" y2="194" stroke="#1D9E75" stroke-width="1.5" marker-end="url(#arrow)"/>
  <line x1="170" y1="232" x2="170" y2="266" stroke="#1D9E75" stroke-width="1.5" marker-end="url(#arrow)"/>
  <line x1="170" y1="304" x2="170" y2="338" stroke="#1D9E75" stroke-width="1.5" marker-end="url(#arrow)"/>
  <line x1="170" y1="376" x2="170" y2="410" stroke="#1D9E75" stroke-width="1.5" marker-end="url(#arrow)"/>
  <line x1="170" y1="448" x2="170" y2="482" stroke="#1D9E75" stroke-width="1.5" marker-end="url(#arrow)"/>

  <!-- EGRESS nodes (purple) -->
  <rect x="360" y="484" width="220" height="36" rx="6" fill="#EEEDFE" stroke="#534AB7" stroke-width="0.5"/>
  <text x="470" y="502" text-anchor="middle" font-size="13" font-weight="500" fill="#3C3489" dominant-baseline="central">App: write() / send()</text>

  <rect x="360" y="412" width="220" height="36" rx="6" fill="#EEEDFE" stroke="#534AB7" stroke-width="0.5"/>
  <text x="470" y="430" text-anchor="middle" font-size="13" font-weight="500" fill="#3C3489" dominant-baseline="central">Socket send buffer</text>

  <rect x="360" y="340" width="220" height="36" rx="6" fill="#EEEDFE" stroke="#534AB7" stroke-width="0.5"/>
  <text x="470" y="358" text-anchor="middle" font-size="13" font-weight="500" fill="#3C3489" dominant-baseline="central">TCP segmentation + cwnd</text>

  <rect x="360" y="268" width="220" height="36" rx="6" fill="#EEEDFE" stroke="#534AB7" stroke-width="0.5"/>
  <text x="470" y="286" text-anchor="middle" font-size="13" font-weight="500" fill="#3C3489" dominant-baseline="central">IP route lookup + frag</text>

  <rect x="360" y="196" width="220" height="36" rx="6" fill="#EEEDFE" stroke="#534AB7" stroke-width="0.5"/>
  <text x="470" y="214" text-anchor="middle" font-size="13" font-weight="500" fill="#3C3489" dominant-baseline="central">POSTROUTING + tc egress</text>

  <rect x="360" y="124" width="220" height="36" rx="6" fill="#EEEDFE" stroke="#534AB7" stroke-width="0.5"/>
  <text x="470" y="142" text-anchor="middle" font-size="13" font-weight="500" fill="#3C3489" dominant-baseline="central">Driver: TX ring → DMA</text>

  <rect x="360" y="52" width="220" height="36" rx="6" fill="#EEEDFE" stroke="#534AB7" stroke-width="0.5"/>
  <text x="470" y="70" text-anchor="middle" font-size="13" font-weight="500" fill="#3C3489" dominant-baseline="central">NIC transmits frame</text>

  <!-- EGRESS arrows (upward) -->
  <line x1="470" y1="482" x2="470" y2="450" stroke="#7F77DD" stroke-width="1.5" marker-end="url(#arrow)"/>
  <line x1="470" y1="410" x2="470" y2="378" stroke="#7F77DD" stroke-width="1.5" marker-end="url(#arrow)"/>
  <line x1="470" y1="338" x2="470" y2="306" stroke="#7F77DD" stroke-width="1.5" marker-end="url(#arrow)"/>
  <line x1="470" y1="304" x2="470" y2="234" stroke="#7F77DD" stroke-width="1.5" marker-end="url(#arrow)"/>
  <line x1="470" y1="232" x2="470" y2="162" stroke="#7F77DD" stroke-width="1.5" marker-end="url(#arrow)"/>
  <line x1="470" y1="160" x2="470" y2="90" stroke="#7F77DD" stroke-width="1.5" marker-end="url(#arrow)"/>

  <!-- Wire label -->
  <text x="340" y="56" text-anchor="middle" font-size="11" fill="#bbb">— wire —</text>

  <!-- Legend -->
  <rect x="40" y="556" width="12" height="12" rx="2" fill="#1D9E75" opacity="0.7"/>
  <text x="58" y="564" font-size="11" fill="#888" dominant-baseline="central">ingress (RX)</text>
  <rect x="160" y="556" width="12" height="12" rx="2" fill="#7F77DD" opacity="0.7"/>
  <text x="178" y="564" font-size="11" fill="#888" dominant-baseline="central">egress (TX)</text>
</svg>
